# xmcd
#
# Track frame offsets:
#       150
#       11556
#       22186
#       30877
#       39540
#       47825
#       59211
#       67788
#       76418
#       85226
#       98129
#       107602
#
# Disc length: 1595 seconds
#
# Revision: 2
# Processed by: cddbd v1.5.2PL0 Copyright (c) Steve Scherf et al.
# Submitted via: FreeDbEdit v0.1
#
DISCID=9106390c
DTITLE=Roger Miller - King of the Road
DYEAR=2003
DGENRE=Country
TTITLE0=King of the Road
TTITLE1=Engine Engine No.9
TTITLE2=Dang Me
TTITLE3=England Swings
TTITLE4=Do - Wacka - Do
TTITLE5=Husbands and Wives
TTITLE6=In the Summertime
TTITLE7=You Can't Rollerskate in a Buffalo Herd
TTITLE8=My Uncle Used to Love Me but She Died
TTITLE9=The Last Word in Lonesome
TTITLE10=Chug a Lug
TTITLE11=Little Green Apples
EXTD=YEAR: 2003 ID3G: 83
EXTT0=
EXTT1=
EXTT2=
EXTT3=
EXTT4=
EXTT5=
EXTT6=
EXTT7=
EXTT8=
EXTT9=
EXTT10=
EXTT11=
PLAYORDER=
